<?xml version="1.0" standalone="no"?>
<!DOCTYPE svg PUBLIC "-//W3C//DTD SVG 20010904//EN"
 "http://www.w3.org/TR/2001/REC-SVG-20010904/DTD/svg10.dtd">
<svg version="1.0" xmlns="http://www.w3.org/2000/svg"
 width="1600.000000pt" height="1600.000000pt" viewBox="0 0 1600.000000 1600.000000"
 preserveAspectRatio="xMidYMid meet">
<metadata>
Created by potrace 1.14, written by Peter Selinger 2001-2017
</metadata>
<g transform="translate(0.000000,1600.000000) scale(0.100000,-0.100000)"
fill="#000000" stroke="none">
<path d="M0 8000 l0 -8000 8000 0 8000 0 0 8000 0 8000 -8000 0 -8000 0 0
-8000z m3016 1379 c43 -11 106 -35 139 -52 115 -62 234 -194 301 -334 19 -41
37 -73 39 -71 2 2 26 37 53 78 56 86 161 191 244 243 249 160 633 203 933 106
138 -44 227 -99 325 -198 125 -127 188 -250 243 -471 20 -83 21 -110 24 -1067
l4 -983 -360 0 -360 0 -4 928 c-3 829 -5 934 -20 990 -24 90 -59 152 -112 201
-59 54 -113 78 -207 91 -191 27 -367 -54 -450 -207 -59 -108 -58 -83 -58
-1085 l0 -918 -365 0 -364 0 -3 948 c-3 887 -5 950 -22 1002 -54 161 -142 237
-304 260 -168 24 -328 -32 -468 -162 l-64 -60 0 -994 0 -994 -365 0 -365 0 0
1365 0 1365 243 0 c133 0 257 -4 276 -10 70 -20 108 -78 136 -207 10 -46 21
-83 24 -83 4 0 29 23 56 51 102 105 260 206 390 249 133 44 334 52 461 19z
m4441 -7 c202 -44 367 -114 511 -215 90 -64 219 -194 284 -287 198 -282 282
-675 233 -1090 -57 -491 -294 -845 -700 -1048 -369 -183 -912 -186 -1290 -7
-255 122 -446 306 -571 551 -93 183 -135 344 -155 584 -31 380 59 753 244
1011 203 284 484 450 872 514 122 21 453 13 572 -13z m3226 8 c193 -39 375
-151 490 -302 124 -163 189 -353 207 -606 5 -70 10 -513 10 -984 l0 -858 -365
0 -365 0 0 913 c0 745 -3 924 -14 978 -56 261 -273 376 -570 302 -121 -30
-235 -94 -333 -186 l-53 -50 0 -978 0 -979 -360 0 -360 0 0 1365 0 1365 245 0
c273 0 289 -3 341 -63 25 -27 37 -57 55 -134 12 -54 26 -102 30 -106 3 -5 40
20 80 55 178 154 341 236 543 273 113 21 301 18 419 -5z m2752 6 c392 -61 676
-228 888 -522 88 -123 178 -345 212 -527 38 -203 36 -496 -5 -694 -108 -531
-462 -899 -972 -1013 -334 -75 -739 -34 -1013 102 -376 188 -609 509 -691 953
-26 141 -26 488 0 630 92 503 401 868 859 1014 84 27 131 37 297 64 62 10 343
5 425 -7z m-7377 -3852 c215 -43 377 -185 461 -403 60 -157 91 -421 71 -614
-41 -402 -217 -660 -523 -770 -67 -24 -104 -30 -202 -34 -228 -11 -380 42
-517 179 l-78 77 0 -435 0 -434 -85 0 -85 0 0 1210 0 1210 58 0 c31 0 64 -4
72 -9 10 -7 17 -48 25 -159 l10 -150 78 84 c77 82 205 177 282 210 126 52 292
67 433 38z m4471 -17 c192 -68 304 -214 346 -454 12 -70 15 -202 15 -709 l0
-624 -43 0 c-76 0 -88 23 -102 185 -4 44 -10 84 -12 88 -3 4 -28 -14 -56 -41
-161 -151 -324 -232 -514 -253 -201 -22 -359 25 -467 140 -59 64 -91 136 -105
233 -28 204 59 354 269 462 177 92 402 138 774 162 l99 6 -6 157 c-10 242 -40
335 -142 436 -81 81 -148 105 -290 105 -169 0 -274 -39 -434 -160 -72 -54 -98
-69 -115 -64 -31 9 -42 21 -57 56 -13 31 -12 32 37 75 90 80 212 155 309 188
152 52 364 57 494 12z m-2397 1 c16 -13 510 -1487 524 -1560 3 -21 9 -38 13
-38 4 0 12 24 18 53 23 110 483 1522 500 1535 10 7 47 12 90 12 l72 0 -208
-617 c-114 -340 -250 -743 -300 -895 l-93 -278 -68 0 c-45 0 -71 5 -79 14 -14
17 -9 3 -301 869 -238 703 -239 708 -250 666 -29 -108 -522 -1534 -533 -1541
-7 -5 -41 -7 -77 -6 l-65 3 -297 885 c-163 487 -297 888 -297 893 -1 11 137 9
158 -3 10 -5 23 -22 29 -37 25 -62 462 -1442 475 -1498 l14 -60 18 60 c46 155
508 1513 521 1533 12 18 23 22 67 22 29 0 60 -6 69 -12z"/>
<path d="M6958 8834 c-167 -40 -300 -162 -367 -335 -67 -171 -96 -448 -71
-684 48 -465 240 -675 618 -675 396 0 590 250 609 785 13 372 -53 621 -205
773 -112 113 -221 153 -412 151 -63 0 -141 -7 -172 -15z"/>
<path d="M13020 8834 c-150 -40 -271 -141 -340 -285 -73 -153 -100 -303 -100
-554 0 -256 28 -405 104 -560 98 -198 237 -283 482 -292 269 -11 441 80 543
289 102 207 137 556 85 858 -52 301 -194 486 -420 544 -79 20 -277 20 -354 0z"/>
<path d="M5695 5395 c-133 -37 -294 -154 -390 -285 l-35 -48 0 -470 0 -470 40
-50 c65 -84 121 -131 195 -168 168 -83 392 -84 561 -4 83 40 187 137 237 221
44 75 90 212 107 321 19 118 8 420 -19 528 -60 237 -200 387 -399 429 -71 15
-235 12 -297 -4z"/>
<path d="M10570 4590 c-431 -29 -716 -134 -795 -295 -16 -32 -20 -61 -20 -140
0 -87 3 -106 25 -148 28 -56 90 -116 149 -146 106 -55 324 -44 478 24 77 34
188 114 261 188 l62 63 -2 229 c-3 222 -4 230 -23 231 -11 1 -72 -2 -135 -6z"/>
</g>
</svg>
