<?xml version="1.0" standalone="no"?>
<!DOCTYPE svg PUBLIC "-//W3C//DTD SVG 20010904//EN"
 "http://www.w3.org/TR/2001/REC-SVG-20010904/DTD/svg10.dtd">
<svg version="1.0" xmlns="http://www.w3.org/2000/svg"
 width="1600.000000pt" height="1600.000000pt" viewBox="0 0 1600.000000 1600.000000"
 preserveAspectRatio="xMidYMid meet">
<metadata>
Created by potrace 1.14, written by Peter Selinger 2001-2017
</metadata>
<g transform="translate(0.000000,1600.000000) scale(0.100000,-0.100000)"
fill="#000000" stroke="none">
<path d="M0 8000 l0 -8000 8000 0 8000 0 0 8000 0 8000 -8000 0 -8000 0 0
-8000z m3120 1354 c30 -9 84 -30 120 -48 117 -57 259 -220 315 -363 10 -24 20
-43 24 -43 3 0 22 28 41 62 76 132 237 269 390 331 342 138 766 102 1019 -89
171 -128 295 -371 331 -644 5 -44 10 -458 10 -987 l0 -913 -355 0 -355 0 0
898 c0 973 -1 977 -55 1089 -67 137 -233 209 -421 182 -170 -24 -290 -131
-341 -305 -16 -54 -18 -139 -21 -961 l-3 -903 -354 0 -355 0 -2 943 -3 942
-23 62 c-48 127 -152 203 -305 223 -164 21 -317 -35 -459 -168 l-48 -45 0
-978 0 -979 -355 0 -355 0 0 1341 0 1341 248 -4 c211 -3 252 -6 279 -21 53
-28 80 -75 105 -177 12 -52 24 -97 25 -99 2 -3 36 27 76 66 148 145 327 236
518 263 86 12 242 4 309 -16z m4198 15 c774 -85 1231 -677 1163 -1506 -18
-218 -55 -369 -131 -531 -212 -451 -643 -704 -1200 -703 -622 0 -1081 310
-1266 855 -54 157 -69 273 -69 521 0 250 15 364 70 525 105 308 327 563 612
705 235 115 539 165 821 134z m3252 -4 c124 -19 189 -38 281 -86 190 -99 328
-268 404 -493 61 -182 59 -145 63 -1178 l3 -948 -356 0 -355 0 0 900 c0 618
-3 916 -11 952 -48 230 -224 348 -473 317 -149 -19 -289 -85 -413 -194 l-53
-47 0 -964 0 -964 -355 0 -355 0 0 1341 0 1341 248 -4 c211 -3 252 -6 279 -21
53 -28 80 -74 103 -177 12 -52 25 -98 29 -103 4 -4 39 20 77 54 254 225 568
323 884 274z m2810 -10 c412 -71 741 -312 915 -670 205 -422 190 -1037 -35
-1436 -227 -401 -637 -621 -1160 -620 -467 0 -840 172 -1081 497 -173 234
-258 523 -259 876 0 334 71 593 228 833 59 90 227 258 318 318 178 117 380
188 614 217 103 12 345 4 460 -15z m-7151 -4081 c271 -67 436 -312 472 -701
20 -223 -13 -418 -103 -602 -42 -89 -62 -117 -132 -186 -64 -64 -100 -91 -166
-124 -217 -106 -468 -94 -633 32 -26 21 -52 37 -57 37 -6 0 -10 -117 -10 -325
l0 -325 -215 0 -215 0 0 1090 0 1090 133 0 c192 0 224 -13 247 -102 6 -21 15
-56 20 -78 l11 -41 72 66 c161 148 389 215 576 169z m4187 -19 c107 -36 182
-83 251 -159 66 -72 107 -147 137 -250 19 -67 20 -101 24 -655 l3 -583 -135 4
c-162 4 -178 12 -214 104 -13 32 -26 67 -30 76 -6 15 -17 10 -76 -37 -145
-116 -246 -154 -431 -162 -133 -6 -206 7 -299 54 -203 101 -279 384 -159 591
98 167 381 281 781 314 l144 12 -7 95 c-11 148 -40 210 -122 258 -36 21 -62
27 -123 31 -96 5 -185 -19 -308 -84 -69 -36 -93 -44 -138 -44 -47 0 -59 4 -91
34 -33 30 -121 172 -112 180 135 106 203 145 332 191 50 18 126 38 167 44 41
6 86 13 100 15 68 12 230 -3 306 -29z m-3188 -13 c12 -7 29 -23 37 -36 18 -27
246 -940 265 -1059 7 -43 16 -77 19 -77 3 0 16 35 27 78 59 216 307 1040 320
1059 27 42 51 48 199 48 150 0 180 -8 205 -55 12 -23 320 -1098 320 -1117 0
-7 3 -13 8 -13 4 0 15 44 25 98 20 107 252 1005 268 1034 25 46 53 53 246 56
135 3 183 1 183 -8 0 -9 -417 -1349 -496 -1592 l-16 -48 -172 0 c-95 0 -187 5
-203 10 -17 6 -36 23 -43 38 -17 38 -298 972 -317 1055 -8 37 -17 67 -18 65
-2 -2 -13 -41 -25 -88 -31 -124 -300 -1000 -316 -1032 -20 -39 -66 -48 -251
-48 l-162 0 -55 173 c-30 94 -138 440 -241 767 -102 327 -194 621 -205 653
l-19 59 197 -4 c136 -2 204 -7 220 -16z"/>
<path d="M7050 8840 c-190 -23 -324 -120 -411 -295 -71 -144 -99 -299 -99
-545 0 -244 28 -398 99 -545 96 -201 259 -295 510 -295 126 0 212 19 295 63
194 103 293 328 312 707 20 395 -92 718 -287 833 -35 21 -91 46 -124 56 -73
22 -207 32 -295 21z"/>
<path d="M13000 8840 c-341 -44 -510 -324 -510 -845 0 -316 68 -551 198 -684
111 -113 239 -156 442 -148 143 5 197 19 290 75 154 92 248 286 279 570 49
456 -68 840 -293 965 -105 59 -265 85 -406 67z"/>
<path d="M5847 4939 c-62 -15 -118 -49 -184 -112 l-63 -60 0 -357 c0 -342 1
-358 20 -383 57 -73 207 -126 317 -113 154 18 248 113 300 306 24 91 25 366 0
462 -36 143 -98 226 -190 253 -55 16 -140 18 -200 4z"/>
<path d="M10175 4281 c-242 -43 -328 -103 -328 -231 0 -111 59 -162 195 -168
127 -6 234 35 336 131 l32 31 0 128 0 128 -67 -1 c-38 0 -113 -9 -168 -18z"/>
</g>
</svg>
